<svg xmlns="http://www.w3.org/2000/svg" width="480" height="315.669" viewBox="0 0 480 315.669"><defs><style>.a{fill:#020202;}.b{fill:#fff;}.c{fill:#e20600;}</style></defs><g transform="translate(979.932 124.817)"><path class="a" d="M-817.233.943c.2-.285.369-.495.56-.751l-3.24-.592a29.935,29.935,0,0,1,1.857,2.42c.2-.264.823-1.077.823-1.077" transform="translate(45.919 35.704)"/><path class="a" d="M-818.65,7.309c-.33.5-.675,1-1.025,1.492l3.453.606a32.039,32.039,0,0,0-2.427-2.1" transform="translate(45.988 37.915)"/><path class="a" d="M-669.236,11.724c.016-.018.038-.041.054-.058-.022-.05-.039-.087-.056-.135Z" transform="translate(89.477 39.123)"/><path class="a" d="M-683.081-36.686a38.1,38.1,0,0,0-.236,6.58l1.924.365Z" transform="translate(85.1 25.298)"/><g transform="translate(-883.687 -124.817)"><path class="b" d="M-686.542,56.954a19.277,19.277,0,0,0,8.791,6.6q.513-.706,1.026-1.426c.817-1.15,1.283-1.634,1.778-1.8l.841-.925,1.17-.017.38.5a1.14,1.14,0,0,1,.215.44l.088.113.041.419-.079.347a13.231,13.231,0,0,0-.417,3.9c1.171.25,1.925.337,1.952.342a26.235,26.235,0,0,0,5.173.051,91.71,91.71,0,0,1-4.1-10.076c-.644-.008-1.333-.037-2.116-.12-.077-.009-7.655-.921-9.506-4.9a16.83,16.83,0,0,1-1.356-6.941l-.477-37.691L-690.3,4.432l.322,35.911c.048,5.474.483,12.3,3.44,16.611" transform="translate(967.232 161.216)"/><path class="b" d="M-727,35.711c-.05,3.742-.781,6.118-2.3,7.48a5.621,5.621,0,0,1-4.484,1.2l-.906-.085c-3.422-.31-8.1-.733-9.947-4.217a14.943,14.943,0,0,1-1.252-7.224l.766-38.982L-753.065-7.6l-.883,37.233c-.171,7.1.9,12.906,3.2,17.247,4.1,7.777,14.756,8.727,19.147,8.774h.17a11.444,11.444,0,0,0,7.654-2.55c4.5-3.995,4.574-11.983,4.621-17.27,0,0,0-.188.336-37.032l-7.682-1.435Z" transform="translate(949.303 157.828)"/><path class="b" d="M-721.871-1.533l-.078,10.7,13.881,2.511v.3l-.087,46.3,7.635,1.209-.092-46.469,13.568,2.453-.077-10.517Z" transform="translate(958.32 159.536)"/><path class="b" d="M-752.251,3.7l.287-10.972L-780.4-12.587l-1.649,42.78c.015.024.033.044.05.065l.815-1.074c2.671-3.717,4.511-5.608,5.461-5.608h.169l.359.1.227.137c.573.395,1.085.832,1.621,1.25l.011-.26,20.447,3.46.292-11.236-20.351-3.572.46-13.41Z" transform="translate(941.394 156.423)"/><path class="b" d="M-805.205,8.459a41.581,41.581,0,0,1-2.586,3.959c-.111.155-.25.335-.367.495l6.066,1.068.514-11.087-5.348-.975a29.163,29.163,0,0,1,2.39,3.563c.563,1-.11,2.079-.51,2.721Z" transform="translate(934.042 160.508)"/><path class="b" d="M-820.975,16.683a15.371,15.371,0,0,1,1.535.081l.291-5.23c-.332.411-.656.827-1.015,1.23-1.46,1.514-1.9,1.835-2.511,1.835h-.709l-.393-.625A27.408,27.408,0,0,0-828.561,7.8l-.707,11.781a13.007,13.007,0,0,1,4.367-2.338,14.072,14.072,0,0,1,3.926-.556" transform="translate(928.097 162.163)"/><path class="b" d="M-665.969,11.333a7.365,7.365,0,0,0-.473.606c-.081.111-.152.21-.218.3.354.683.119,1.442-.475,2.722a27,27,0,0,0-1.972,6.206l.237,12.634c1.311,6.445,4.111,12.792,7.012,18.822a57.331,57.331,0,0,0,.247-7.091l-.8-35.813-1.889-.354c-.055.069-.108.144-.164.21q-.731.9-1.5,1.755" transform="translate(973.201 162.606)"/><path class="b" d="M-904.157-86.178a12.862,12.862,0,0,1,6.5-1.864,12.62,12.62,0,0,1,3.043.382,15.957,15.957,0,0,1,2.352.8,47.392,47.392,0,0,1,.228-5.616l.631-6.548a31.1,31.1,0,0,0-3.68-3.39c-.4.61-.815,1.21-1.243,1.808a45.527,45.527,0,0,1-2.985,3.8c-1.529,1.6-1.929,1.842-2.51,1.842h-.711l-.394-.628c-.284-.517-.633-1-.955-1.5l-.123,1.2a54.917,54.917,0,0,0-.158,9.707" transform="translate(906.967 131.127)"/><path class="b" d="M-613.059-4.814l-.354-11.806L-634.859-20.9l-.295-13.275,21.349,4.374-.329-11.138L-635.4-45.429l-.287-13.089,21.167,4.566-.337-11.317-29.468-6.408,1.134,61.138Z" transform="translate(980.179 139.782)"/><path class="b" d="M-901.423-79.369c.106.205.2.425.308.624a23.26,23.26,0,0,0,6.826,7.635A22.952,22.952,0,0,0-889.5-68.5c-1.142-1.456-2.414-2.954-3.861-4.533-2.189-2.376-4.92-4.966-8.064-6.338" transform="translate(907.777 137.616)"/><path class="b" d="M-889.227-20.485l-4.825,51.044,10,1.583,4.564-50.867,16.723,3.025.738-8.909-.623-.737.344-2.167-41.049-7.677c-.635.217-1.27.437-1.911.642l-1.115,10.962Z" transform="translate(906.381 150.057)"/><path class="b" d="M-830.885,37.428c-.154.661-.322,1.412-.49,2.192l3.281.518,3.856-61.079-9.008-1.687-1.6,23.659-22.449-3.955,1.078-14.209a29.3,29.3,0,0,0-8.7-9.179c-.027-.021-.044-.053-.069-.074l-4.793,59.425c.055.181.121.36.178.538l9.421,1.491,1.916-25.238,22.56,3.824-1.575,23.273a29.761,29.761,0,0,1,7.25-9.606l.127-.1.333-.163.326-.056.747-.005.414.55c.341.513.643.969-1.523,6a23.509,23.509,0,0,0-1.284,3.882" transform="translate(916.69 152.536)"/><path class="b" d="M-847-50.472a10,10,0,0,0,3.572,3.7,118.622,118.622,0,0,1,3.18-13.419A8.58,8.58,0,0,1-840.617-62l-6.253-53.718-11.762-2.557,7.923,54.924c.774,5.534,2.024,9.865,3.714,12.879" transform="translate(919.828 126.659)"/><path class="b" d="M-805.936,24.723a21.012,21.012,0,0,1,3.554,4.759l.354-7.626-8.51-1.452c1.7,1.451,3.249,2.946,4.6,4.319" transform="translate(933.372 165.714)"/><path class="b" d="M-715.778-28.741l-.018-.013.342-.459.336-.495.025.017c.937-1.207,1.41-1.552,2.029-1.552h.568l.412.446a1.455,1.455,0,0,1,.291,1.3,10.18,10.18,0,0,0,.471,5.742l2.644.5,3.507-13.27,21.148,4.142,1.769,7.946a93.585,93.585,0,0,0,6.794-6.973l-9.335-38.4a37.747,37.747,0,0,0-3.778-10.1,8.821,8.821,0,0,0-5.92-4.525,4.808,4.808,0,0,0-5.332,1.845,26.908,26.908,0,0,0-3.845,8.545l-13.858,47.643c.633-.783,1.225-1.576,1.75-2.331m19.433-40.809a5.241,5.241,0,0,1,.5-1.3,1.611,1.611,0,0,1,1.77-.816,1.927,1.927,0,0,1,1.421,1.289,12.4,12.4,0,0,1,.383,1.256L-686.7-44.21l-15.568-3.139Z" transform="translate(959.565 136.14)"/><path class="b" d="M-730.31-77.986l-1.156,51.448,2.1.4a27.521,27.521,0,0,0,2.107-2.832c.495-.739,2.162-3.119,3.229-3.119h.607l.764.957-.145.7a25.919,25.919,0,0,0-.938,5.365l1.616.306.951-51.59,15.915,3.364.154-11.922-41.141-8.944-.342,12.123,16.284,3.446Z" transform="translate(951.381 133.537)"/><path class="b" d="M-771.378-88.014l16.531,3.5a5.151,5.151,0,0,1,3.688,2.591,9.451,9.451,0,0,1,.9,4.783l-.1,2.908a8.326,8.326,0,0,1-1.263,4.495,3.716,3.716,0,0,1-4.044,1.5l-5.823-1.2a3.922,3.922,0,0,0-3.873.979c-1.047,1.07-1.628,2.95-1.73,5.583a19.866,19.866,0,0,0,.4,4.364,21.866,21.866,0,0,0,1.8,5.284l7.829,16.28c2.7-.739,5.628-1.516,8.634-2.251.042-.01.1-.028.144-.038l-9.2-20.015,3.51.706a10.23,10.23,0,0,0,4.789-.127,9.131,9.131,0,0,0,3.959-2.281,12.7,12.7,0,0,0,2.851-4.474,19.888,19.888,0,0,0,1.241-6.757l.107-3.774c.176-5.945-.951-10.55-3.349-13.685s-6.3-5.3-11.616-6.454l-24.589-5.347-2.907,65.184,9.951,1.889Z" transform="translate(940.988 131.399)"/><path class="b" d="M-601.457,64.676l-17.89-3.08-.512-12.133,17.811,3.158-.481-9.767-17.745-3.264-.5-11.969,17.658,3.341-.487-9.925-24.671-4.615,2.114,54.635,25.219,3.985Z" transform="translate(984.7 164.592)"/><path class="b" d="M-821.818-110.553l-6.892-1.5-5.884,20.994a153.734,153.734,0,0,1,12.776-19.5" transform="translate(926.597 128.412)"/><path class="b" d="M-895.336-103.57c.136-.177.825-1.079.825-1.079,2.675-3.724,4.519-5.62,5.468-5.62h.169l.359.1.222.136c.155.106.286.228.438.336,1.968-2.058,4.9-2.708,8.724-1.892l5.148,1.091c3.872.823,6.553,2.684,7.969,5.537,1.371,2.763,1.794,6.9,1.293,12.648l-.987,11.38c-.51,5.856-1.657,9.784-3.5,12.013a7.635,7.635,0,0,1-6.2,2.672,14.524,14.524,0,0,1-2.8-.292l-.347-.068a35.357,35.357,0,0,1,6.2,13.686,18.212,18.212,0,0,0,3.179-.586,16.856,16.856,0,0,0,7.642-4.677,24.657,24.657,0,0,0,5.047-8.678,48.522,48.522,0,0,0,2.469-12.215l.79-9.661a51.58,51.58,0,0,0-.416-12.619,31.169,31.169,0,0,0-3.452-10.186,23.269,23.269,0,0,0-6.569-7.408,25.665,25.665,0,0,0-9.833-4.269l-4.326-.943a26.879,26.879,0,0,0-5.667-.65,18.746,18.746,0,0,0-4.6.545,16.512,16.512,0,0,0-7.7,4.3,23.732,23.732,0,0,0-5.25,8.4c-.172.44-.313.916-.47,1.373a31.576,31.576,0,0,1,6.177,6.634" transform="translate(907.752 124.817)"/><path class="b" d="M-782.863-35.916l.613-12.965-25.713-5.184.8-14.121,25.576,5.284.58-12.221-25.454-5.414.79-13.9,25.316,5.508.586-12.392-35.81-7.788L-819.633-42.9Z" transform="translate(930.811 129.24)"/><path class="b" d="M-840.688-48.526a7.07,7.07,0,0,0,4.095-2.444c2.055-2.431,3.806-6.025,5.2-10.681l13.314-44.766c-12.11,13.912-19.49,30.891-21.944,50.465-.31,2.467-.561,4.96-.669,7.426" transform="translate(924.881 129.999)"/><path class="b" d="M-827.689,26.021a10.551,10.551,0,0,0-2.125.217l-.036.642L-819.6,28.5a17.057,17.057,0,0,0-6.728-2.407,13.243,13.243,0,0,0-1.358-.072" transform="translate(927.933 167.295)"/><path class="b" d="M-676.481-68.186h.169l.363.1.225.135a33.191,33.191,0,0,1,6.949,6.439l-.112-15.5-8.409-1.828.04,10.955a1.587,1.587,0,0,1,.774-.3" transform="translate(970.895 137.764)"/><path class="b" d="M-826.692-20.784l-1.372,22.776c1.147-1.366,2.46-2.7,3.24-2.7h.17l.358.1.227.135a33.555,33.555,0,0,1,5.44,4.715l.673-12.063,22.581,4.229.519-11.236Z" transform="translate(928.436 154.114)"/><path class="b" d="M-667.745-53.757c-.487.743-.98,1.458-1.446,2.1a45.927,45.927,0,0,1-2.982,3.8c-1.458,1.517-1.9,1.839-2.513,1.839h-.711l-.391-.628c-.424-.765-.919-1.493-1.42-2.217l.108,30.9,2.513.477a29.779,29.779,0,0,1-1.421-6.1c-.689-5.848,1.62-10.749,3.84-14.887,4.167-7.837,4.8-7.837,5.6-7.837h.1l.206.032a1.6,1.6,0,0,1,1.06.961c.318.877-.124,2.1-1.1,3.969l.944.191a5.472,5.472,0,0,1,3.215,1.831,20.162,20.162,0,0,1,2.458,4.587l9.361,21.867,9.6,1.824L-655.994-45.62l.081-.155,13.894-26.631-9.412-2.048-8.87,17.691a7.433,7.433,0,0,1-2.34,3.089,4.453,4.453,0,0,1-3.266.3Z" transform="translate(970.919 139)"/><path class="b" d="M-636.183,46.27c3.372.413,6.564.8,8.832-2.03,2.7-3.377,2.517-7.75,2.344-11.977l-.04-.992c-.19-5.092-1.277-8.974-3.23-11.542-1.926-2.527-4.914-4.186-8.881-4.927l-21.471-4.2,1.362,55.557,2.256.4c-2.488-7.891-3.33-16.155-.491-24.689a44.908,44.908,0,0,1,5.143-9.78c.092-.141.166-.246.252-.376l-.284-10.07,14.891,2.74a4.178,4.178,0,0,1,3.078,2.165,11,11,0,0,1,1.073,5.278V32.1a10.513,10.513,0,0,1-.766,4.96c-.765,1.473-2.962,1.7-4.015,1.61a44.906,44.906,0,0,1-4.77-.739,2.437,2.437,0,0,0-2.674.845c-.706.938-1.029,2.549-.965,4.792a19.1,19.1,0,0,0,2.158,8.134l10.514,18.744,7.428,1.177-13.4-25.541Z" transform="translate(976.152 162.952)"/><path class="b" d="M-782.206,26.786l-.349,9.062,3.964.627c1.078-.674,2.154-1.342,3.242-2.076a28.573,28.573,0,0,0-6.858-7.613" transform="translate(941.252 167.511)"/></g><path class="c" d="M-829.341-7.3c-.452.628-4.076,5.042-3.2,5.648A30.4,30.4,0,0,1-823.057,8.55c.111.2,1.549-1.339,1.624-1.412a43.865,43.865,0,0,0,2.917-3.713A40.8,40.8,0,0,0-815.975-.46c.245-.44.912-1.309.66-1.761A30.408,30.408,0,0,0-824.8-12.432c-.454-.313-4.251,4.721-4.542,5.128m63.615,37.032c-.451-.314-4.24,4.708-4.528,5.114-.21.288-1.088,1.386-1.891,2.537a30.518,30.518,0,0,0-8.99-9.449c-.452-.313-4.239,4.708-4.53,5.114-.451.628-4.067,5.031-3.192,5.634A30.352,30.352,0,0,1-779.4,48.862c.111.2,1.547-1.336,1.622-1.409a43.962,43.962,0,0,0,2.909-3.7c.679-.946,1.324-1.908,1.923-2.886a30.151,30.151,0,0,1,8.957,9.8c.109.2,1.546-1.336,1.622-1.412a44.353,44.353,0,0,0,2.908-3.7,41.36,41.36,0,0,0,2.535-3.877c.246-.44.91-1.306.656-1.757a30.269,30.269,0,0,0-9.46-10.185M-718.8,54.639c-.454-.314-4.24,4.708-4.531,5.114-.21.29-1.088,1.386-1.888,2.537a30.589,30.589,0,0,0-8.989-9.449c-.456-.311-4.24,4.711-4.531,5.114-.452.628-4.065,5.031-3.193,5.636a30.334,30.334,0,0,1,9.46,10.183c.109.2,1.546-1.336,1.622-1.409a44.37,44.37,0,0,0,2.91-3.7c.679-.946,1.323-1.908,1.924-2.883a30.171,30.171,0,0,1,8.953,9.794c.111.2,1.547-1.336,1.622-1.411a43.054,43.054,0,0,0,2.908-3.7A41.482,41.482,0,0,0-710,66.582c.245-.441.911-1.305.659-1.758A30.347,30.347,0,0,0-718.8,54.639m131.057-89.915c.111.2,1.552-1.341,1.626-1.415A44.308,44.308,0,0,0-583.2-40.4a41.187,41.187,0,0,0,2.54-3.887c.247-.44.913-1.308.662-1.761a30.408,30.408,0,0,0-9.485-10.21c-.454-.315-4.25,4.719-4.542,5.125-.453.628-4.074,5.044-3.2,5.648a30.409,30.409,0,0,1,9.483,10.21M-747.819-7.356c10.346-2.129,17.385-5.138,27.56-8.106,4.965-1.449,9.929-2.9,14.918-4.24,4.312-1.161,10.883-3.964,15.3-3.406,10.014,1.267-2.546,19.993,8.93,22.695,7.43,1.749,12.968-4.7,17.046-10.715-1.25,5.764-1.089,12.991,6.574,12.714,5.7-.21,9.705-5.024,12.89-9.566-1.114,9.106,7.346,15.151,16.087,14.049,10.261-1.292,17.811-9.411,24.444-16.87a42.031,42.031,0,0,0,3.722,34.675,49.615,49.615,0,0,0,11.684,13.283c1.931,1.551,4.05,2.872,5.9,4.515a14.78,14.78,0,0,1,2.474,2.743,23.755,23.755,0,0,1,1.578,3.492c.393-.454.707-1,1.12-1.452q.757-.836,1.473-1.713a43.968,43.968,0,0,0,9.163-19.308q.255-1.332.409-2.671A35.092,35.092,0,0,0-568.234,7.6c-2.185-6.533-5.615-12.481-8.55-18.65a52.781,52.781,0,0,1-3.482-8.742,22.1,22.1,0,0,1-.864-5.5c-.009-.633.516-4.2-.032-3.177.471-.875,2.467-4.273,1.637-4.591-.646-.247-4.352,6.828-4.561,7.213-2.485,4.626-4.333,9.01-3.719,14.211.667,5.654,3.308,10.777,5.773,15.73,2.77,5.569,5.747,11.09,7.535,17.12a36.983,36.983,0,0,1,1.59,9.588q.028,1.189-.035,2.386c-1.658-3.11-4.942-5.02-7.8-7.194A51.324,51.324,0,0,1-592,14.3c-7.148-10.4-9.7-23.875-5.244-36.46.4-1.135.085-.976-.4-.421-.072-.09-.281.036-.7.511-6.629,7.464-14.51,15.713-24.948,16.209-8.224.39-16.091-5.846-14.314-14.678.2-1.03-1.518,1.372-1.438,1.255-3.2,4.7-8,10.275-14.232,8.55-6.023-1.666-4.91-8.518-3.6-13.4.215-.806-2.193,2.4-2.214,2.428-3.639,5.681-11.565,13.173-18.25,7.854-6.307-5.022,2.21-15.447-3.492-20.351-2.6-2.238-7.728-.106-10.718.623-4.71,1.147-9.394,2.434-14.064,3.764-8.475,2.415-13.761,5-22.271,7.25-16.616,4.4-35.307,8.549-52.016,4.889-7.026-1.541-13.706-4.955-17.955-10.781-5.14-7.05-4.469-16.2-3.4-24.726,2.392-19.068,9.436-36.531,22.356-51.367a36.53,36.53,0,0,0,4.831-8.149c.308-.646,2.12-4.546.411-2.583a154.474,154.474,0,0,0-28.411,48.715,116.678,116.678,0,0,0-6.2,26.447c-1.008,9.11-1.183,18.348,4.973,25.36,12.854,14.639,37.8,11.045,55.471,7.409m168.854,57.77c1-2.174.508-2.129-.824-.429a42.837,42.837,0,0,0-4.763,8.509c-6.6,14.308-2.718,28.277,3.418,41.294,3.373,7.153,7.222,14.138,9.518,21.789,1.852,6.17,3.591,15.466.887,22.218a45.827,45.827,0,0,0-3.781-11.71c-2.774-5.761-6.541-10.911-9.863-16.33-3.562-5.8-7.863-12.777-5.851-20.071.023-.084-.019-.073-.1,0,.057-.2.076-.305.038-.268-.3.315-.578.647-.868.968-.04-.295-.423.024-1.291,1.245-.463.649-.932,1.3-1.409,1.956q-.867,1.112-1.692,2.274c-4.356,5.7-9.457,11.013-16.462,13.051-3.227.94-7.491,1.393-10.413-.373-4.4-2.657-3.348-8.093-1.667-12.365.428-1.085.089-1.138-.588-.308-3.283,4.007-8.661,7.851-13.926,7.2-5.879-.732-6.257-6.119-5.427-11.119.106-.646-2.912,3.569-3.07,3.829.513-.844-1.619.928-1.8,1.059a23.749,23.749,0,0,1-3.243,2.053,15.01,15.01,0,0,1-7.847,2.017c-5.237-.454-7.637-6.107-5.878-10.86.218-.439.43-.866.633-1.255.071-.134.18-.378.309-.685.653-1.192,1.647-3.12,1.348-3.672.045-.181.044-.273-.024-.22a1.044,1.044,0,0,1-.113.086c-.116-.046-.333.152-.606.494-11.732,9.517-26.382,19.786-41.3,21.841-6.351.875-13.065-.086-18.149-3.815-4.3-3.15-9.035-10.943-6.3-16.761.028-.058.061-.124.1-.2,2.153-1.247,4.266-2.576,6.32-3.975,2.015-1.375,3.459-5.1,4.551-7.19.372-.712,2.108-4.9,1.632-4.577-11.132,7.584-23.973,13.7-37.175,13.747.167-.512.327-1.022.478-1.523,2.695-9.072,2.513-17.026-3.974-23.6-5.513-5.591-14.264-13.329-23.11-10.758-6.926,2.013-11.659,11.636-13.569,17.968-2.843,9.427,3.234,17.546,10.307,22.533a38.438,38.438,0,0,0,20.448,7.088,5.487,5.487,0,0,1-.579.435c-5.045,2.94-11.167,3.061-16.5,1.733-5.439-1.355-8.855-4.12-12.323-8.37a36.606,36.606,0,0,1-7.35-14.792,29.737,29.737,0,0,1-.784-10.518,65.884,65.884,0,0,1,1.318-6.947A24.432,24.432,0,0,1-798.928,59c.534-1.241,2.216-5.358,1.5-4.786-4.822,3.878-8.172,11.19-10.3,16.8a63.6,63.6,0,0,0-3.94,21.9c-.055,7.346,1.85,14.025,2.759,21.189a30.674,30.674,0,0,1,.048,6.993c-2.715-16.742-14.2-30.138-22.675-44.369a78.877,78.877,0,0,1-8.986-59.584c.179-.747-3.21,3.881-3.508,4.378-1.595,2.66-3.54,5.674-4.268,8.7a79.386,79.386,0,0,0,7.373,57.325c4.074,7.335,9.189,14.358,13.719,21.644-12.609-8.738-29.911-12.532-44.383-14.893-25.862-4.222-56.383-6.757-74.023-27.915A44.6,44.6,0,0,1-954.6,48.486,40.517,40.517,0,0,1-955.77,37.78a25.454,25.454,0,0,1,.734-5.658,32.717,32.717,0,0,1,2.312-5.559A37.4,37.4,0,0,0-950.49,21.1a8.168,8.168,0,0,0,.223-.994c.382-2.619-1.752,1.147-2.293,1.991-7.755,12.116-13.023,24.761-10.05,38.781,2.924,13.77,12.089,24.385,23.882,31.321,27.279,16.045,61.448,11.817,90.334,23.565,13.864,5.64,26.743,15.65,29.973,31.048a35.658,35.658,0,0,1,2.482-3.641c.61-.287,3.169-4.133,3.379-4.484,1.139-1.9,3.331-4.87,4.041-7.384a44.355,44.355,0,0,0,2.121-4.591c2.263-5.8,3.482-11.593,4.925-17.5,4.687,4.829,9.571,8.462,16.872,8.236,5.606-.172,12.91-2.254,17.2-6.258a43,43,0,0,0,7.457-9.6c9.3-.377,18.731-3.612,27.53-8.365-.849,1.622-1.573,3.341-2.058,4.371-3.011,6.418-4.055,12.764-.227,18.8,3.872,6.114,11.382,8.683,18.547,8.57,16.082-.25,32.837-12.049,45.3-22.126-2.706,6.438-4.515,14.672,3.485,15.982,6.565,1.077,12.307-3.522,16.416-8.688-.5,3.21-.841,6.877,1.618,9.213,2.933,2.791,7.461,1.908,10.932.255a66.85,66.85,0,0,0,7.236-5.4c-.572,1.734-1.252,7.162-1,8.146,2.2,8.473,13.8,5.293,19.482,1.855a40.187,40.187,0,0,0,10.139-9.31,43.267,43.267,0,0,0-2.676,22.132c1.4,8.653,5.347,16.513,10.119,23.607,2.518,3.743,5.278,7.3,8.085,10.821,2.605,3.267,5.9,6.4,6.983,10.589-.037-.147,3.6-5.1,3.95-5.715.658-1.175,2.437-3.591,2.777-5.345a18.729,18.729,0,0,0,.736-1.92,53.531,53.531,0,0,0,2.2-22.984c.946-1.657,1.8-3.276,1.893-3.453,3.608-6.775,5.973-13.571,5.676-21.141-.309-7.857-2.868-15.159-6.027-22.126-6.558-14.453-17.965-31.974-10.135-48.947M-761.743,89.282a39.743,39.743,0,0,1-19.065-9.191,24.256,24.256,0,0,1-6.168-7.725,18.215,18.215,0,0,1-1.489-4.387,13.906,13.906,0,0,1-.207-1.6,5.511,5.511,0,0,1,1.372-.57,12.831,12.831,0,0,1,4.224-.229c3.7.371,7.032,2.286,9.993,4.308,4.827,3.291,11.5,8.184,13.218,14.113a18.125,18.125,0,0,1,.6,5.616c-.824-.088-1.649-.2-2.473-.337M-582.9,156.1a99.883,99.883,0,0,1-10.508-16.011,49.942,49.942,0,0,1-5.359-17.345,37.032,37.032,0,0,1,.116-8.875,34.7,34.7,0,0,1,.868-4.313q.2-.637.4-1.276c.033-.037.073-.084.106-.125-2.376,11.549,8.641,22.808,13.79,31.752a49.593,49.593,0,0,1,6.732,23.544c-1.96-2.587-4.313-4.977-6.148-7.352M-865.966-20.535a13.229,13.229,0,0,0,4.147-3.734c1.744-2.274,2.431-2.592,3.848-5.459,10.023,5.746,19.7,13.257,18.262,25.326L-840-2.576c-.156.749,2.993-3.33,3.24-3.706.579-.875,1.268-1.851,1.924-2.87,5.391-7.58,11.274-15.834,12.115-24.4.547-5.55-1.425-10.764-3.62-15.6-2.157-4.749-5.826-10.058-4.743-15.609.78-1.4,1.424-2.754,1.1-2.942-.632-.369-4.1,5.38-4.206,5.558-1.994,3.286-4.5,6.8-4.508,10.705-.006,4.291,2.3,8.187,4.046,11.879,1.912,4.034,3.892,8.2,4.5,12.724a15.83,15.83,0,0,1-2.2,10.893c1.18-11.76-8.544-19.594-17.75-24.925-.62-.357-1.25-.7-1.872-1.059a27.144,27.144,0,0,0,1.406-10.508c-.566-6.791-3.949-12.768-7.97-17.946-3.745-4.824-8.357-10.594-14.608-12.154-5.089-1.273-9.69,1.094-13.036,5.132-3.458,4.175-7.6,10.1-8.638,15.466-2.769,14.259,16.769,21.23,26.206,26.529,2.347,1.319,5.005,2.706,7.737,4.2-23.774,12.588-50.348,14.487-75.16,7.409-11.436-3.264-22.407-8.919-29.585-18.482a34.805,34.805,0,0,1-6.451-14.067,25.89,25.89,0,0,1,.058-11.829c1.254-4.551,4.048-8.526,6.224-12.691a5.617,5.617,0,0,0,.947-2.171.506.506,0,0,0-.242.174c-8.838,9.292-16,22.754-14.694,35.44,1.451,14.059,12.048,24.789,24.04,30.711,27.35,13.5,62.088,11.484,89.77-3.825M-868.3-51.1c-5.837-3.278-12.689-6.277-16.632-11.892a15.683,15.683,0,0,1-2.026-3.9,11.078,11.078,0,0,1-.339-3.3,9.166,9.166,0,0,1,2.688-.848c6.1-.768,11.033,3.623,14.749,7.665,4.221,4.59,8.168,9.711,10.386,15.653.236.629.446,1.27.638,1.913-3.154-1.763-6.316-3.516-9.465-5.286m-11.816-41.243c.108.2,1.55-1.339,1.624-1.415a44.841,44.841,0,0,0,2.916-3.712c.681-.947,1.327-1.913,1.929-2.891a30.222,30.222,0,0,1,8.976,9.818c.108.2,1.55-1.34,1.623-1.416a44.007,44.007,0,0,0,2.918-3.709,41.152,41.152,0,0,0,2.538-3.886c.247-.441.911-1.309.661-1.765a30.425,30.425,0,0,0-9.482-10.207c-.457-.315-4.251,4.719-4.542,5.125-.208.29-1.088,1.389-1.895,2.545a30.569,30.569,0,0,0-9.011-9.471c-.456-.314-4.251,4.72-4.542,5.125-.453.629-4.074,5.043-3.2,5.648a30.415,30.415,0,0,1,9.485,10.21m85.975,217.651c-.457-.314-4.242,4.708-4.532,5.112-.45.629-4.065,5.033-3.193,5.635a30.34,30.34,0,0,1,9.46,10.185c.111.2,1.547-1.337,1.622-1.411a43.85,43.85,0,0,0,2.909-3.7,41.105,41.105,0,0,0,2.535-3.877c.245-.439.91-1.3.659-1.757a30.325,30.325,0,0,0-9.46-10.185m258.163.828c-4.115-9.206-9.283-17.842-13.581-26.95-4.566-9.673-8.818-20.925-5.131-32.016.973-2.919-2.057,1.628-2.292,1.991A44.317,44.317,0,0,0-562,78.7c-6.2,18.643,5.613,36.041,13.558,51.407,4.131,7.989,8.04,16.2,10.1,25.091,1.916,8.272,2.842,20.434-.99,27.878-.251.487-2.9,5.6-1.871,5.233,1.813-.637,4.453-6.765,5.2-8.218,4.4-8.536,7.242-17.012,6.972-26.5-.269-9.665-3.092-18.845-6.939-27.449" transform="translate(0 2.53)"/></g></svg>